<svg width="48" height="48" viewBox="0 0 48 48" fill="none" xmlns="http://www.w3.org/2000/svg">
<g clip-path="url(#clip0_208_233)">
<path d="M12.0447 2.18596C14.4837 0.28096 19.1727 -0.26204 21.1017 0.10996C23.0337 0.47896 24.0417 1.54996 24.0537 2.85796L24.1647 19.499C24.1737 20.807 23.4897 22.007 22.6437 22.169C21.7947 22.328 20.5437 21.551 19.8537 20.438L11.0547 6.16696C10.3737 5.05396 8.99967 4.56196 12.0447 2.18596ZM9.12267 33.836L17.9817 30.725C19.2147 30.29 20.3217 29.081 20.4447 28.031C20.5647 26.981 19.6677 25.733 18.4497 25.256L9.09267 21.575C7.87467 21.095 6.46767 22.229 6.09867 24.083C6.09867 24.083 5.87667 30.542 6.09867 31.877C6.32367 33.215 7.88667 34.274 9.12267 33.836ZM24.5757 35.393C24.5997 34.082 23.8977 32.951 23.0097 32.87C22.1217 32.789 20.7117 33.539 19.8687 34.538L13.6887 41.894C12.8487 42.893 13.2657 45.239 14.4927 45.686L20.9547 47.912C22.1847 48.356 24.3507 47.042 24.3747 45.734L24.5757 35.393ZM39.9327 33.68L32.1837 31.469C30.9267 31.109 29.5017 31.145 29.0187 31.55C28.5357 31.949 28.6557 33.218 29.2887 34.364L34.1787 43.247C34.8087 44.39 37.3407 44.195 38.0367 43.085C38.0367 43.085 40.9827 38.771 41.5257 37.151C42.0687 35.528 41.1897 34.037 39.9327 33.68ZM41.8197 21.188C41.4717 20.063 39.0477 16.751 37.7367 15.623C36.4257 14.492 34.9257 14.633 34.0827 15.626L29.0877 21.533C28.2417 22.526 28.0137 24.104 28.5777 25.028C29.1417 25.955 30.6447 26.48 31.9227 26.195L40.5597 24.605C42.1197 24.233 42.1767 22.313 41.8197 21.188Z" fill="#F44336"/>
</g>
<defs>
<clipPath id="clip0_208_233">
<rect width="48" height="48" fill="white"/>
</clipPath>
</defs>
</svg>
